<svg width="128" height="128" viewBox="0 0 128 128" fill="none" xmlns="http://www.w3.org/2000/svg">
<g clip-path="url(#clip0_1_18)">
<path d="M90.4902 106.618H37.5098C30.8015 106.618 25.3644 101.21 25.3644 94.5426V33.4575C25.3644 26.7869 30.8015 21.3818 37.5098 21.3818H90.4902C97.1985 21.3818 102.636 26.7898 102.636 33.4575V94.5396C102.636 101.21 97.1985 106.615 90.4902 106.615V106.618Z" fill="url(#paint0_linear_1_18)" stroke="url(#paint1_linear_1_18)" stroke-width="5.52" stroke-miterlimit="10"/>
<path d="M72.3404 44.4975C72.3404 44.4975 80.8785 27.8778 95.5927 39.8022C95.5927 39.8022 81.7862 37.4546 72.3404 44.4975Z" fill="#232323"/>
<path d="M32.4102 48.0495C32.4102 48.0495 43.3542 32.8902 56.1076 46.8684C56.1076 46.8684 42.8102 42.4902 32.4102 48.0495Z" fill="#232323"/>
<path d="M99.2058 49.8822C98.0945 50.5425 96.9775 51.1738 95.8575 51.7731C95.0778 52.1891 94.6066 53.0269 94.6298 53.92L94.8044 60.2153L93.7687 55.9738C93.4196 54.5396 91.8749 53.7891 90.5455 54.3913C89.1375 55.0284 87.7295 55.6218 86.3215 56.1745C85.408 56.5324 84.8204 57.4429 84.8465 58.4378L85.024 64.7884L83.8109 59.8138C83.488 58.4844 82.1207 57.7193 80.8349 58.1353C78.4553 58.9033 76.0902 59.5636 73.7513 60.1309C72.7825 60.3665 72.0756 61.2044 71.9855 62.208L71.2204 70.7055L70.4029 63.4705C70.2487 62.1149 68.9978 61.1782 67.6713 61.4167C65.4545 61.8182 63.2785 62.1411 61.152 62.3971C60.0436 62.5309 59.1855 63.4444 59.1069 64.5731L58.528 72.8727L57.472 65.0095C57.3062 63.7789 56.2269 62.8916 55.0022 62.9731C52.9425 63.1127 50.9498 63.1913 49.0415 63.2262C47.9447 63.2465 47.0109 64.0378 46.7985 65.1316L45.2596 73.0589L45.1869 65.5244C45.1753 64.2589 44.1833 63.2262 42.9353 63.1884C41.1025 63.1302 39.3833 63.0371 37.8007 62.9236C36.5178 62.8305 35.4065 63.8138 35.3164 65.1142L34.7898 72.672L33.6669 64.3316C33.5244 63.2698 32.6924 62.4407 31.6451 62.3069C30.272 62.1295 29.1287 61.9549 28.2502 61.8095C27.168 61.6291 26.1847 62.4669 26.176 63.5782L26.1207 70.8073C26.1178 71.3338 26.3389 71.8429 26.7316 72.1862C63.5345 104.535 96.9542 71.9011 101.385 67.2495C101.705 66.912 101.882 66.464 101.882 65.9956V51.4444C101.882 50.0509 100.39 49.1753 99.2029 49.8822H99.2058Z" fill="white"/>
</g>
<defs>
<linearGradient id="paint0_linear_1_18" x1="16.5004" y1="114.775" x2="78.4116" y2="48.5935" gradientUnits="userSpaceOnUse">
<stop stop-color="#34CAD1"/>
<stop offset="1" stop-color="#005082"/>
</linearGradient>
<linearGradient id="paint1_linear_1_18" x1="24.5615" y1="64" x2="103.439" y2="64" gradientUnits="userSpaceOnUse">
<stop stop-color="#005082"/>
<stop offset="1" stop-color="#34CAD1"/>
</linearGradient>
<clipPath id="clip0_1_18">
<rect width="128" height="128" fill="white"/>
</clipPath>
</defs>
</svg>
