<?xml version="1.0" encoding="UTF-8"?>
<svg xmlns="http://www.w3.org/2000/svg" xmlns:xlink="http://www.w3.org/1999/xlink" width="128" height="128" viewBox="0 0 128 128" version="1.1">
<defs>
<linearGradient id="linear0" gradientUnits="userSpaceOnUse" x1="101.72" y1="87.96" x2="350.54" y2="365.71" gradientTransform="matrix(0.290909,0,0,0.290909,0,0)">
<stop offset="0" style="stop-color:rgb(20.392157%,79.215686%,81.960784%);stop-opacity:1;"/>
<stop offset="1" style="stop-color:rgb(0%,31.372549%,50.980392%);stop-opacity:1;"/>
</linearGradient>
<linearGradient id="linear1" gradientUnits="userSpaceOnUse" x1="70.06" y1="220" x2="369.94" y2="220" >
<stop offset="0" style="stop-color:rgb(0%,31.372549%,50.980392%);stop-opacity:1;"/>
<stop offset="1" style="stop-color:rgb(20.392157%,79.215686%,81.960784%);stop-opacity:1;"/>
</linearGradient>
</defs>
<g id="surface1">
<path style=" stroke:none;fill-rule:nonzero;fill:rgb(20.392157%,79.215686%,81.960784%);fill-opacity:1;" d="M 81.480469 55.390625 C 80 56.652344 77.863281 56.65625 76.382812 55.5 C 76.175781 55.339844 75.984375 55.160156 75.808594 54.957031 C 73.144531 51.867188 69.277344 50.089844 65.191406 50.089844 C 64.972656 50.082031 64.753906 50.078125 64.535156 50.082031 C 64.511719 50.082031 64.488281 50.082031 64.46875 50.082031 C 64.273438 50.082031 64.078125 50.089844 63.878906 50.101562 C 63.847656 50.101562 63.8125 50.101562 63.777344 50.105469 C 63.59375 50.117188 63.410156 50.128906 63.222656 50.148438 C 63.183594 50.148438 63.144531 50.15625 63.105469 50.160156 C 62.925781 50.175781 62.746094 50.199219 62.566406 50.222656 C 62.523438 50.226562 62.484375 50.234375 62.445312 50.238281 C 62.261719 50.265625 62.082031 50.296875 61.902344 50.328125 C 61.863281 50.332031 61.824219 50.34375 61.785156 50.347656 C 61.601562 50.382812 61.417969 50.421875 61.238281 50.460938 C 61.203125 50.46875 61.167969 50.476562 61.132812 50.484375 C 60.941406 50.527344 60.75 50.578125 60.558594 50.625 C 60.53125 50.632812 60.507812 50.640625 60.480469 50.648438 C 60.261719 50.707031 60.046875 50.769531 59.832031 50.839844 C 59.4375 50.964844 59.046875 51.105469 58.660156 51.261719 C 58.398438 51.367188 58.140625 51.476562 57.886719 51.59375 C 57.246094 51.890625 56.625 52.226562 56.019531 52.601562 C 55.894531 52.679688 55.777344 52.757812 55.65625 52.835938 C 55.300781 53.070312 54.945312 53.320312 54.597656 53.585938 C 54.023438 54.027344 53.464844 54.507812 52.9375 55.027344 C 48.246094 59.644531 45.535156 67.347656 47.917969 77.554688 C 44.953125 73.824219 43.175781 69.113281 43.175781 63.996094 C 43.175781 51.914062 53.054688 42.082031 65.199219 42.082031 C 70.773438 42.082031 76.097656 44.179688 80.144531 47.90625 C 80.769531 48.480469 81.363281 49.09375 81.925781 49.742188 C 83.367188 51.417969 83.175781 53.945312 81.488281 55.386719 Z M 81.480469 55.390625 "/>
<path style=" stroke:none;fill-rule:nonzero;fill:rgb(0%,67.45098%,90.588235%);fill-opacity:1;" d="M 77.453125 82.199219 C 73.863281 84.597656 69.605469 85.914062 65.191406 85.914062 C 58.191406 85.914062 51.949219 82.644531 47.910156 77.558594 C 45.527344 67.351562 48.238281 59.652344 52.929688 55.03125 C 53.457031 54.511719 54.011719 54.03125 54.589844 53.585938 L 54.59375 53.585938 C 54.933594 53.320312 55.289062 53.070312 55.652344 52.835938 C 55.765625 52.757812 55.890625 52.679688 56.015625 52.605469 C 56.621094 52.222656 57.246094 51.890625 57.878906 51.59375 C 58.136719 51.480469 58.394531 51.367188 58.65625 51.265625 C 59.042969 51.105469 59.433594 50.96875 59.828125 50.84375 C 60.039062 50.769531 60.257812 50.707031 60.472656 50.648438 C 60.5 50.640625 60.527344 50.636719 60.550781 50.625 C 60.742188 50.578125 60.933594 50.527344 61.121094 50.484375 C 61.160156 50.476562 61.195312 50.46875 61.226562 50.460938 C 61.40625 50.421875 61.59375 50.382812 61.78125 50.347656 C 61.816406 50.339844 61.855469 50.332031 61.898438 50.324219 C 62.074219 50.296875 62.257812 50.261719 62.4375 50.238281 C 62.480469 50.226562 62.515625 50.226562 62.558594 50.222656 C 62.742188 50.195312 62.921875 50.171875 63.101562 50.15625 C 63.140625 50.152344 63.179688 50.148438 63.21875 50.144531 C 63.402344 50.128906 63.585938 50.113281 63.773438 50.101562 C 63.808594 50.101562 63.839844 50.101562 63.875 50.101562 C 64.074219 50.089844 64.269531 50.085938 64.460938 50.082031 L 64.53125 50.082031 C 64.566406 50.082031 64.605469 50.078125 64.644531 50.078125 C 64.824219 50.078125 65.007812 50.082031 65.1875 50.089844 C 57.476562 50.089844 51.207031 56.328125 51.207031 64.003906 C 51.207031 64.359375 51.21875 64.71875 51.246094 65.070312 L 51.246094 65.082031 C 51.550781 74.636719 60.734375 84.644531 77.441406 82.191406 L 77.441406 82.203125 Z M 77.453125 82.199219 "/>
<path style=" stroke:none;fill-rule:nonzero;fill:rgb(0%,31.372549%,50.980392%);fill-opacity:1;" d="M 81.917969 78.253906 C 80.917969 79.414062 79.808594 80.460938 78.613281 81.375 C 78.5625 81.414062 78.511719 81.453125 78.460938 81.488281 C 78.136719 81.734375 77.804688 81.964844 77.464844 82.191406 C 60.746094 84.652344 51.5625 74.636719 51.257812 65.082031 C 51.257812 65.078125 51.257812 65.074219 51.257812 65.066406 C 51.242188 64.496094 51.257812 63.925781 51.300781 63.359375 C 51.316406 63.179688 51.332031 63.003906 51.355469 62.820312 C 50.730469 70.46875 56.472656 77.191406 64.152344 77.816406 C 67.046875 78.050781 69.808594 77.382812 72.160156 76.058594 C 72.234375 76.015625 72.3125 75.972656 72.382812 75.925781 C 73.816406 75.082031 75.09375 73.992188 76.140625 72.707031 C 77.617188 71.34375 79.914062 71.273438 81.480469 72.609375 C 83.167969 74.046875 83.363281 76.574219 81.917969 78.253906 Z M 81.917969 78.253906 "/>
<path style=" stroke:none;fill-rule:nonzero;fill:url(#linear0);" d="M 64 21.382812 C 40.347656 21.382812 21.171875 40.460938 21.171875 64 C 21.171875 87.539062 40.347656 106.617188 64 106.617188 C 87.652344 106.617188 106.828125 87.539062 106.828125 64 C 106.828125 40.460938 87.652344 21.382812 64 21.382812 Z M 64 94.136719 C 47.277344 94.136719 33.714844 80.644531 33.714844 64 C 33.714844 47.355469 47.277344 33.863281 64 33.863281 C 80.722656 33.863281 94.285156 47.355469 94.285156 64 C 94.285156 80.644531 80.722656 94.136719 64 94.136719 Z M 64 94.136719 "/>
<path style="fill:none;stroke-width:5.45;stroke-linecap:butt;stroke-linejoin:miter;stroke:url(#linear1);stroke-miterlimit:10;" d="M 220 73.503418 C 138.695068 73.503418 72.77832 139.084473 72.77832 220 C 72.77832 300.915527 138.695068 366.496582 220 366.496582 C 301.304932 366.496582 367.22168 300.915527 367.22168 220 C 367.22168 139.084473 301.304932 73.503418 220 73.503418 Z M 220 73.503418 " transform="matrix(0.290909,0,0,0.290909,0,0)"/>
</g>
</svg>
