<svg width="128" height="128" viewBox="0 0 128 128" fill="none" xmlns="http://www.w3.org/2000/svg">
<g clip-path="url(#clip0_1_96)">
<path d="M105.708 54.7724C105.687 54.688 105.67 54.6007 105.649 54.5164C102.074 38.8102 89.8095 26.4058 74.1644 22.592C73.9433 22.5367 73.7251 22.4873 73.504 22.4378C70.4465 21.7484 67.264 21.3818 64 21.3818C61.1491 21.3818 58.3622 21.6611 55.6655 22.1935C55.2727 22.272 54.8829 22.3535 54.496 22.4436C38.5367 26.0596 25.9753 38.5949 22.3505 54.5193C22.3302 54.6036 22.3127 54.6909 22.2924 54.7753C21.632 57.7455 21.2887 60.832 21.2887 63.9971C21.2887 67.1622 21.6349 70.2575 22.2924 73.2276C22.3127 73.312 22.3302 73.3993 22.3505 73.4836C25.9811 89.408 38.5367 101.943 54.496 105.559C54.8858 105.649 55.2727 105.731 55.6655 105.809C58.3622 106.339 61.1462 106.621 64 106.621C67.264 106.621 70.4465 106.252 73.504 105.565C73.7251 105.516 73.9433 105.463 74.1644 105.411C89.8095 101.6 102.074 89.1927 105.649 73.4865C105.67 73.4022 105.687 73.3149 105.708 73.2305C106.368 70.2604 106.711 67.1709 106.711 64C106.711 60.8291 106.365 57.7484 105.708 54.7782V54.7724ZM73.504 86.7695C73.1142 86.9353 72.7185 87.0865 72.32 87.2291C69.7193 88.1571 66.9207 88.6633 64 88.6633C61.6349 88.6633 59.3455 88.3287 57.1782 87.7091C56.2618 87.4502 55.3658 87.136 54.496 86.7695C48.4858 84.2735 43.6771 79.4764 41.1782 73.4807C40.9105 72.8495 40.672 72.2036 40.4596 71.5491C39.6916 69.1665 39.2756 66.6298 39.2756 63.9942C39.2756 61.3585 39.6887 58.8247 40.4596 56.4451C40.6691 55.7905 40.9105 55.1447 41.1782 54.5135C43.6742 48.5178 48.4858 43.7178 54.496 41.2218C55.3658 40.8611 56.2618 40.5469 57.1782 40.2822C59.3425 39.6596 61.6349 39.328 64 39.328C66.9207 39.328 69.7193 39.8342 72.32 40.7622C72.7185 40.9047 73.1142 41.056 73.504 41.2218C79.5142 43.7178 84.32 48.5149 86.8247 54.5135C87.0895 55.1447 87.328 55.7905 87.5375 56.4451C88.3055 58.8247 88.7185 61.3615 88.7185 63.9942C88.7185 66.6269 88.3025 69.1665 87.5345 71.5491C87.3251 72.2036 87.0836 72.8495 86.8218 73.4807C84.3171 79.4764 79.5142 84.2735 73.504 86.7695Z" fill="url(#paint0_radial_1_96)" stroke="url(#paint1_linear_1_96)" stroke-width="4.65" stroke-miterlimit="10"/>
<g opacity="0.68">
<path d="M73.504 22.4378V41.2247C73.1142 41.0589 72.7186 40.9076 72.32 40.7651C69.7193 39.8371 66.9207 39.3309 64 39.3309C61.6349 39.3309 59.3455 39.6655 57.1782 40.2851C56.2618 40.5469 55.3658 40.8611 54.496 41.2247V22.4407C54.8858 22.3505 55.2727 22.2691 55.6655 22.1905C58.3622 21.6611 61.1462 21.3789 64 21.3789C67.264 21.3789 70.4465 21.7455 73.504 22.4349V22.4378Z" fill="url(#paint2_linear_1_96)"/>
<path d="M73.504 86.7695V105.559C70.4465 106.249 67.264 106.615 64 106.615C61.1491 106.615 58.3622 106.336 55.6655 105.804C55.2727 105.725 54.8829 105.644 54.496 105.553V86.7665C55.3658 87.1302 56.2618 87.4444 57.1782 87.7062C59.3425 88.3287 61.6349 88.6604 64 88.6604C66.9207 88.6604 69.7193 88.1542 72.32 87.2262C72.7186 87.0836 73.1142 86.9324 73.504 86.7665V86.7695Z" fill="url(#paint3_linear_1_96)"/>
<path d="M40.4625 71.552C40.672 72.2065 40.9135 72.8524 41.1811 73.4836H22.3505C22.3302 73.3993 22.3127 73.312 22.2924 73.2276C21.632 70.2575 21.2887 67.168 21.2887 63.9971C21.2887 60.8262 21.6349 57.7455 22.2924 54.7753C22.3127 54.6909 22.3302 54.6036 22.3505 54.5193H41.1782C40.9105 55.1505 40.672 55.7964 40.4596 56.4509C39.6887 58.8305 39.2756 61.3673 39.2756 64C39.2756 66.6327 39.6916 69.1724 40.4596 71.5549L40.4625 71.552Z" fill="url(#paint4_linear_1_96)"/>
<path d="M106.711 63.9971C106.711 67.168 106.365 70.2574 105.708 73.2276C105.687 73.312 105.67 73.3993 105.649 73.4836H86.8218C87.0866 72.8524 87.3251 72.2065 87.5345 71.552C88.3025 69.1695 88.7185 66.6327 88.7185 63.9971C88.7185 61.3615 88.3055 58.8276 87.5375 56.448C87.328 55.7934 87.0865 55.1476 86.8247 54.5164H105.649C105.67 54.6007 105.687 54.688 105.708 54.7724C106.368 57.7425 106.711 60.8291 106.711 63.9942V63.9971Z" fill="url(#paint5_linear_1_96)"/>
</g>
</g>
<defs>
<radialGradient id="paint0_radial_1_96" cx="0" cy="0" r="1" gradientUnits="userSpaceOnUse" gradientTransform="translate(63.8008 63.9699) scale(42.6003 42.6003)">
<stop offset="0.15" stop-color="#005082"/>
<stop offset="0.73" stop-color="#34CAD1"/>
<stop offset="1" stop-color="#005082"/>
</radialGradient>
<linearGradient id="paint1_linear_1_96" x1="33.3527" y1="94.6473" x2="94.6473" y2="33.3527" gradientUnits="userSpaceOnUse">
<stop stop-color="#005082"/>
<stop offset="1" stop-color="#34CAD1"/>
</linearGradient>
<linearGradient id="paint2_linear_1_96" x1="54.496" y1="31.3047" x2="73.504" y2="31.3047" gradientUnits="userSpaceOnUse">
<stop stop-color="#D3FFFF"/>
<stop offset="1" stop-color="#B0DBDB"/>
</linearGradient>
<linearGradient id="paint3_linear_1_96" x1="2.72645e-07" y1="96.6953" x2="0.290909" y2="96.6953" gradientUnits="userSpaceOnUse">
<stop stop-color="#D3FFFF"/>
<stop offset="1" stop-color="#B0DBDB"/>
</linearGradient>
<linearGradient id="paint4_linear_1_96" x1="21.2887" y1="64" x2="41.1782" y2="64" gradientUnits="userSpaceOnUse">
<stop stop-color="#D3FFFF"/>
<stop offset="1" stop-color="#B0DBDB"/>
</linearGradient>
<linearGradient id="paint5_linear_1_96" x1="86.8218" y1="64" x2="106.711" y2="64" gradientUnits="userSpaceOnUse">
<stop stop-color="#D3FFFF"/>
<stop offset="1" stop-color="#B0DBDB"/>
</linearGradient>
<clipPath id="clip0_1_96">
<rect width="128" height="128" fill="white"/>
</clipPath>
</defs>
</svg>
