<svg width="128" height="128" viewBox="0 0 128 128" fill="none" xmlns="http://www.w3.org/2000/svg">
<g clip-path="url(#clip0_1_86)">
<path d="M93.8647 106.618H34.1353C27.904 106.618 22.8538 101.583 22.8538 95.3716V32.6284C22.8538 26.4174 27.904 21.3818 34.1353 21.3818H93.8676C100.099 21.3818 105.149 26.4174 105.149 32.6284V95.3745C105.149 101.585 100.099 106.621 93.8676 106.621L93.8647 106.618Z" fill="url(#paint0_linear_1_86)" stroke="url(#paint1_linear_1_86)" stroke-width="4.91" stroke-miterlimit="10"/>
<path d="M82.112 76.5702C81.6786 79.8487 79.9011 81.6291 76.608 82.0538C76.608 83.8022 76.6138 85.536 76.608 87.2727C76.6022 88.2473 76.1164 89.0356 75.1709 89.0938C74.5716 89.1316 73.8531 88.6836 73.3527 88.2589C73.0822 88.032 73.0967 87.3978 73.088 86.944C73.0589 85.3353 73.0764 83.7265 73.0764 82.0538H69.3644C69.3644 83.712 69.3731 85.3207 69.3644 86.9323C69.3527 88.3403 68.7185 89.1636 67.6509 89.1927C66.5571 89.2218 65.8764 88.3462 65.8676 86.8858C65.8618 85.3149 65.8676 83.7469 65.8676 82.0829H62.1382C62.1382 83.8051 62.1498 85.4574 62.1353 87.1098C62.1236 88.3665 61.408 89.2014 60.3898 89.1956C59.3687 89.1927 58.6618 88.3665 58.6473 87.0923C58.6269 85.44 58.6415 83.7847 58.6415 82.0596H54.9265C54.9265 83.744 54.9353 85.3905 54.9265 87.04C54.9178 88.32 54.2662 89.1462 53.2451 89.1927C52.1745 89.2422 51.4182 88.3927 51.4007 87.0458C51.3775 85.4313 51.3949 83.8138 51.3949 82.4378C50.0131 81.7018 48.5876 81.2742 47.6509 80.3491C46.7113 79.424 46.2633 78.0073 45.4691 76.5731C44.1891 76.5731 42.5716 76.5876 40.9513 76.5702C39.5753 76.5556 38.7287 75.8574 38.7316 74.7927C38.7375 73.7396 39.5956 73.0589 40.9629 73.0531C42.5775 73.0443 44.192 73.0531 45.8851 73.0531V69.344C44.0815 69.344 42.3011 69.3527 40.5178 69.3411C39.5695 69.3353 38.8626 68.7854 38.8335 67.9214C38.8131 67.3193 39.2756 66.6269 39.6916 66.112C39.8895 65.8676 40.48 65.8822 40.8931 65.8763C42.5106 65.8531 44.1309 65.8676 45.856 65.8676V62.1498C44.1687 62.1498 42.5106 62.1585 40.8553 62.1469C39.5811 62.1353 38.7491 61.4516 38.7316 60.4334C38.7142 59.4094 39.5404 58.6851 40.8116 58.6676C42.4727 58.6443 44.1309 58.6618 45.8793 58.6618V54.9585C44.3171 54.9585 42.7491 54.9585 41.184 54.9585C39.6044 54.9585 38.7113 54.304 38.7375 53.1811C38.7636 52.0465 39.6247 51.4414 41.248 51.4356C42.7433 51.4298 44.2356 51.4356 45.856 51.4356C46.3011 48.256 48.0553 46.3389 51.4036 45.952C51.4036 44.1513 51.296 42.4 51.4618 40.6749C51.52 40.0582 52.1309 39.2727 52.7011 39.0022C53.1316 38.7956 53.9898 39.1505 54.4785 39.5025C54.7956 39.7323 54.9004 40.4014 54.9149 40.8785C54.9644 42.5309 54.9353 44.1862 54.9353 45.9316H58.6531C58.6531 44.1658 58.6502 42.3942 58.6531 40.6225C58.656 39.6771 59.1884 38.9643 60.0553 38.9207C60.6575 38.8887 61.376 39.3251 61.8793 39.7498C62.1498 39.9767 62.1295 40.6138 62.1353 41.0676C62.1615 42.6763 62.1469 44.2851 62.1469 45.9578H65.8764C65.8764 44.2589 65.8676 42.6094 65.8793 40.96C65.888 39.6713 66.5484 38.8538 67.5695 38.8189C68.6313 38.7811 69.3556 39.6334 69.3702 40.9891C69.3876 42.6036 69.3731 44.2182 69.3731 45.9287H73.088C73.088 44.3578 73.0851 42.7578 73.088 41.1578C73.0909 39.6887 73.7484 38.816 74.8422 38.816C75.9535 38.816 76.6109 39.6713 76.6226 41.1607C76.6342 42.7316 76.6226 44.3025 76.6226 45.9433C79.8836 46.3476 81.6989 48.1483 82.1324 51.4356C83.7702 51.4356 85.3876 51.424 87.0051 51.4385C88.4625 51.4531 89.3382 52.1745 89.2829 53.2829C89.2305 54.336 88.3927 54.9527 86.9905 54.9585C85.4138 54.9643 83.8371 54.9585 82.1586 54.9585V58.6589C83.8196 58.6589 85.4371 58.6473 87.0545 58.6618C88.448 58.6734 89.2858 59.3425 89.2858 60.4043C89.2858 61.4574 88.4335 62.1353 87.0604 62.144C85.4458 62.1527 83.8313 62.144 82.1353 62.144V65.8618C83.7527 65.8618 85.3615 65.856 86.9702 65.8618C88.4364 65.8676 89.312 66.5483 89.2829 67.6422C89.2538 68.7098 88.4335 69.3353 87.0138 69.3469C85.3993 69.3585 83.7847 69.3469 82.1207 69.3469V73.0473C83.8429 73.0473 85.4982 73.0385 87.1564 73.0473C88.4247 73.056 89.2626 73.7425 89.2858 74.7578C89.3091 75.7847 88.4887 76.5353 87.2233 76.5585C85.5622 76.5876 83.8982 76.5673 82.1207 76.5673L82.112 76.5702ZM64.0902 49.5622C60.0727 49.5622 56.0524 49.5593 52.0349 49.5622C50.1876 49.5622 49.5215 50.1993 49.5215 51.9825C49.5156 59.9942 49.5156 68.0058 49.5215 76.0174C49.5215 77.76 50.1847 78.4291 51.9156 78.4291C59.9535 78.4378 67.9884 78.4349 76.0262 78.4291C77.8356 78.4291 78.4756 77.7774 78.4785 75.9447C78.4844 67.9767 78.4844 60.0087 78.4785 52.0378C78.4785 50.208 77.8356 49.568 76.0175 49.5622C72.0407 49.5534 68.0669 49.5622 64.0902 49.5622Z" fill="url(#paint2_linear_1_86)"/>
<path d="M74.8015 63.9913C74.8015 65.696 74.8189 67.4007 74.7986 69.1025C74.752 72.5236 72.6022 74.72 69.2044 74.7578C65.7426 74.7956 62.2807 74.7956 58.8189 74.7578C55.4153 74.7229 53.2393 72.5324 53.2073 69.12C53.1753 65.7134 53.1782 62.304 53.2073 58.8974C53.2364 55.4298 55.4298 53.2654 58.9295 53.2393C62.304 53.2131 65.6815 53.216 69.0589 53.2393C72.6167 53.2654 74.7695 55.4385 74.8015 59.008C74.816 60.6691 74.8015 62.3302 74.8015 63.9913ZM56.7273 64C56.7273 65.6611 56.7069 67.3222 56.7331 68.9833C56.7593 70.5338 57.4604 71.2349 59.0342 71.2436C62.368 71.264 65.6989 71.2669 69.0327 71.2436C70.5222 71.232 71.2553 70.5164 71.2669 69.0473C71.2931 65.6814 71.2931 62.3185 71.2669 58.9527C71.2553 57.4778 70.528 56.768 69.0327 56.7564C65.6989 56.7302 62.368 56.7331 59.0342 56.7564C57.4604 56.7651 56.7593 57.4662 56.7331 59.0167C56.7069 60.6778 56.7273 62.3389 56.7273 64Z" fill="url(#paint3_linear_1_86)"/>
</g>
<defs>
<linearGradient id="paint0_linear_1_86" x1="15.5462" y1="115.049" x2="68.7622" y2="58.9847" gradientUnits="userSpaceOnUse">
<stop stop-color="#34CAD1"/>
<stop offset="0.9" stop-color="#055C8A"/>
<stop offset="1" stop-color="#005082"/>
</linearGradient>
<linearGradient id="paint1_linear_1_86" x1="22.1382" y1="64" x2="105.862" y2="64" gradientUnits="userSpaceOnUse">
<stop stop-color="#005082"/>
<stop offset="1" stop-color="#34CAD1"/>
</linearGradient>
<linearGradient id="paint2_linear_1_86" x1="38.7229" y1="64" x2="89.2771" y2="64" gradientUnits="userSpaceOnUse">
<stop stop-color="#D3FFFF"/>
<stop offset="1" stop-color="#B0DBDB"/>
</linearGradient>
<linearGradient id="paint3_linear_1_86" x1="53.184" y1="64.0029" x2="74.8073" y2="64.0029" gradientUnits="userSpaceOnUse">
<stop stop-color="#D3FFFF"/>
<stop offset="1" stop-color="#B0DBDB"/>
</linearGradient>
<clipPath id="clip0_1_86">
<rect width="128" height="128" fill="white"/>
</clipPath>
</defs>
</svg>
