<?xml version="1.0" encoding="UTF-8"?>
<svg xmlns="http://www.w3.org/2000/svg" xmlns:xlink="http://www.w3.org/1999/xlink" width="128" height="128" viewBox="0 0 128 128" version="1.1">
<defs>
<linearGradient id="linear0" gradientUnits="userSpaceOnUse" x1="102.27" y1="220" x2="337.73" y2="220" gradientTransform="matrix(0.290909,0,0,0.290909,0,0)">
<stop offset="0" style="stop-color:rgb(49.019608%,49.019608%,49.019608%);stop-opacity:1;"/>
<stop offset="1" style="stop-color:rgb(33.333333%,33.333333%,33.333333%);stop-opacity:1;"/>
</linearGradient>
</defs>
<g id="surface1">
<path style=" stroke:none;fill-rule:nonzero;fill:rgb(33.333333%,33.333333%,33.333333%);fill-opacity:1;" d="M 98.25 31.5625 L 98.25 44.210938 L 74.835938 20.800781 L 87.480469 20.800781 C 93.429688 20.800781 98.25 25.621094 98.25 31.5625 Z M 98.25 31.5625 "/>
<path style=" stroke:none;fill-rule:nonzero;fill:url(#linear0);" d="M 66.132812 20.800781 L 98.25 52.917969 L 98.25 96.4375 C 98.25 102.378906 93.429688 107.199219 87.480469 107.199219 L 40.519531 107.199219 C 34.570312 107.199219 29.75 102.378906 29.75 96.4375 L 29.75 31.5625 C 29.75 25.621094 34.570312 20.800781 40.519531 20.800781 Z M 66.132812 20.800781 "/>
<path style="fill:none;stroke-width:8.59;stroke-linecap:round;stroke-linejoin:round;stroke:rgb(100%,100%,100%);stroke-opacity:1;stroke-miterlimit:4;" d="M 186.014404 250.950928 L 195.64209 250.950928 L 205.578613 275.483398 L 214.199219 230.72876 L 253.985596 230.72876 L 253.985596 239.013672 " transform="matrix(0.290909,0,0,0.290909,0,0)"/>
<path style="fill:none;stroke-width:8.59;stroke-linecap:round;stroke-linejoin:miter;stroke:rgb(100%,100%,100%);stroke-opacity:1;stroke-miterlimit:10;" d="M 227.814941 253.220215 L 249.755859 275.161133 " transform="matrix(0.290909,0,0,0.290909,0,0)"/>
<path style="fill:none;stroke-width:8.59;stroke-linecap:round;stroke-linejoin:miter;stroke:rgb(100%,100%,100%);stroke-opacity:1;stroke-miterlimit:10;" d="M 227.814941 275.161133 L 249.755859 253.220215 " transform="matrix(0.290909,0,0,0.290909,0,0)"/>
<path style="fill:none;stroke-width:12.27;stroke-linecap:round;stroke-linejoin:miter;stroke:rgb(94.509804%,47.45098%,23.921569%);stroke-opacity:1;stroke-miterlimit:10;" d="M 150.860596 306.555176 L 289.139404 306.555176 " transform="matrix(0.290909,0,0,0.290909,0,0)"/>
<path style="fill:none;stroke-width:12.27;stroke-linecap:round;stroke-linejoin:miter;stroke:rgb(94.509804%,47.45098%,23.921569%);stroke-opacity:1;stroke-miterlimit:10;" d="M 150.860596 199.656982 L 289.139404 199.656982 " transform="matrix(0.290909,0,0,0.290909,0,0)"/>
<path style="fill:none;stroke-width:12.27;stroke-linecap:round;stroke-linejoin:miter;stroke:rgb(94.509804%,47.45098%,23.921569%);stroke-opacity:1;stroke-miterlimit:10;" d="M 166.557617 183.973389 L 166.557617 322.252197 " transform="matrix(0.290909,0,0,0.290909,0,0)"/>
<path style="fill:none;stroke-width:12.27;stroke-linecap:round;stroke-linejoin:miter;stroke:rgb(94.509804%,47.45098%,23.921569%);stroke-opacity:1;stroke-miterlimit:10;" d="M 273.442383 183.973389 L 273.442383 322.252197 " transform="matrix(0.290909,0,0,0.290909,0,0)"/>
</g>
</svg>
