<?xml version="1.0" encoding="UTF-8"?>
<svg xmlns="http://www.w3.org/2000/svg" xmlns:xlink="http://www.w3.org/1999/xlink" width="128" height="128" viewBox="0 0 128 128" version="1.1">
<defs>
<linearGradient id="linear0" gradientUnits="userSpaceOnUse" x1="292.81" y1="219.18" x2="360.9" y2="219.18" gradientTransform="matrix(0.290909,0,0,0.290909,0,0)">
<stop offset="0" style="stop-color:rgb(82.745098%,100%,100%);stop-opacity:1;"/>
<stop offset="1" style="stop-color:rgb(69.019608%,85.882353%,85.882353%);stop-opacity:1;"/>
</linearGradient>
<linearGradient id="linear1" gradientUnits="userSpaceOnUse" x1="274.3" y1="121.39" x2="250.02" y2="87.82" >
<stop offset="0" style="stop-color:rgb(20.392157%,79.215686%,81.960784%);stop-opacity:1;"/>
<stop offset="1" style="stop-color:rgb(0%,31.372549%,50.980392%);stop-opacity:1;"/>
</linearGradient>
<linearGradient id="linear2" gradientUnits="userSpaceOnUse" x1="217.3" y1="101.81" x2="274.33" y2="101.81" >
<stop offset="0" style="stop-color:rgb(0%,31.372549%,50.980392%);stop-opacity:1;"/>
<stop offset="1" style="stop-color:rgb(20.392157%,79.215686%,81.960784%);stop-opacity:1;"/>
</linearGradient>
<linearGradient id="linear3" gradientUnits="userSpaceOnUse" x1="249.16" y1="351.99" x2="137.82" y2="198.09" >
<stop offset="0" style="stop-color:rgb(20.392157%,79.215686%,81.960784%);stop-opacity:1;"/>
<stop offset="1" style="stop-color:rgb(0%,31.372549%,50.980392%);stop-opacity:1;"/>
</linearGradient>
<linearGradient id="linear4" gradientUnits="userSpaceOnUse" x1="79.1" y1="225.07" x2="274.33" y2="225.07" >
<stop offset="0" style="stop-color:rgb(0%,31.372549%,50.980392%);stop-opacity:1;"/>
<stop offset="1" style="stop-color:rgb(20.392157%,79.215686%,81.960784%);stop-opacity:1;"/>
</linearGradient>
</defs>
<g id="surface1">
<path style=" stroke:none;fill-rule:nonzero;fill:url(#linear0);" d="M 100.226562 28.503906 L 86.203125 28.503906 C 85.636719 28.503906 85.179688 28.960938 85.179688 29.519531 L 85.179688 41.554688 L 89.546875 41.554688 C 91.042969 41.554688 92.253906 42.765625 92.253906 44.257812 C 92.253906 45.75 91.039062 46.960938 89.546875 46.960938 L 85.179688 46.960938 L 85.179688 54.558594 L 94.230469 54.558594 C 95.726562 54.558594 96.9375 55.765625 96.9375 57.257812 C 96.9375 58.753906 95.722656 59.960938 94.230469 59.960938 L 85.179688 59.960938 L 85.179688 67.558594 L 94.230469 67.558594 C 95.726562 67.558594 96.9375 68.769531 96.9375 70.261719 C 96.9375 71.753906 95.722656 72.964844 94.230469 72.964844 L 85.179688 72.964844 L 85.179688 80.558594 L 94.230469 80.558594 C 95.726562 80.558594 96.9375 81.769531 96.9375 83.261719 C 96.9375 84.753906 95.722656 85.964844 94.230469 85.964844 L 85.179688 85.964844 L 85.179688 98 C 85.179688 98.558594 85.636719 99.015625 86.203125 99.015625 L 100.226562 99.015625 C 102.855469 99.015625 104.984375 96.890625 104.984375 94.265625 L 104.984375 33.257812 C 104.984375 30.632812 102.855469 28.507812 100.226562 28.507812 Z M 100.226562 28.503906 "/>
<path style="fill-rule:nonzero;fill:url(#linear1);stroke-width:4.93;stroke-linecap:butt;stroke-linejoin:miter;stroke:url(#linear2);stroke-miterlimit:10;" d="M 271.871338 85.736084 L 271.871338 126.999512 C 271.871338 129.779053 268.514404 131.175537 266.540527 129.20166 L 220.644531 83.38623 C 218.885498 81.627197 219.906006 78.64624 222.363281 78.323975 L 258.000488 73.61084 C 265.345459 72.644043 271.85791 78.35083 271.85791 85.736084 Z M 271.871338 85.736084 " transform="matrix(0.290909,0,0,0.290909,0,0)"/>
<path style="fill-rule:nonzero;fill:url(#linear3);stroke-width:4.93;stroke-linecap:butt;stroke-linejoin:miter;stroke:url(#linear4);stroke-miterlimit:10;" d="M 193.735352 88.045654 L 267.453613 161.643066 C 270.273438 164.462891 271.871338 168.276367 271.871338 172.264404 L 271.871338 354.263916 C 271.871338 361.662598 265.345459 367.369385 258.013916 366.402588 L 92.22168 344.488525 C 86.125488 343.696289 81.573486 338.499756 81.573486 332.363281 L 81.573486 107.650146 C 81.573486 101.513672 86.125488 96.317139 92.22168 95.524902 L 181.140137 83.775635 C 185.786133 83.157959 190.445557 84.729004 193.748779 88.045654 Z M 193.735352 88.045654 " transform="matrix(0.290909,0,0,0.290909,0,0)"/>
<path style=" stroke:none;fill-rule:nonzero;fill:rgb(100%,100%,100%);fill-opacity:1;" d="M 66.59375 55.265625 C 65.050781 56.621094 62.875 56.722656 61.402344 55.65625 C 61.203125 55.511719 61.011719 55.34375 60.839844 55.152344 C 58.28125 52.328125 54.707031 50.9375 51.109375 51.253906 C 50.921875 51.265625 50.738281 51.277344 50.546875 51.296875 C 50.527344 51.296875 50.511719 51.300781 50.488281 51.300781 C 50.324219 51.320312 50.160156 51.339844 49.992188 51.363281 C 49.964844 51.367188 49.933594 51.371094 49.90625 51.378906 C 49.75 51.402344 49.59375 51.425781 49.4375 51.457031 C 49.40625 51.460938 49.371094 51.46875 49.339844 51.476562 C 49.1875 51.503906 49.035156 51.539062 48.882812 51.574219 C 48.847656 51.585938 48.816406 51.589844 48.78125 51.597656 C 48.632812 51.636719 48.484375 51.675781 48.335938 51.71875 C 48.300781 51.726562 48.269531 51.734375 48.238281 51.742188 C 48.085938 51.789062 47.9375 51.835938 47.785156 51.882812 C 47.753906 51.890625 47.726562 51.902344 47.699219 51.914062 C 47.542969 51.964844 47.390625 52.023438 47.230469 52.082031 C 47.210938 52.089844 47.1875 52.097656 47.167969 52.105469 C 46.992188 52.171875 46.816406 52.246094 46.644531 52.320312 C 46.328125 52.457031 46.015625 52.609375 45.703125 52.769531 C 45.5 52.878906 45.292969 52.992188 45.089844 53.113281 C 44.589844 53.410156 44.105469 53.742188 43.632812 54.101562 C 43.539062 54.175781 43.445312 54.25 43.351562 54.324219 C 43.078125 54.546875 42.808594 54.78125 42.542969 55.027344 C 42.105469 55.4375 41.6875 55.875 41.292969 56.34375 C 37.878906 60.382812 35.984375 66.753906 37.648438 75.277344 C 35.585938 72.042969 34.378906 68.152344 34.378906 64.003906 C 34.378906 54.210938 41.378906 45.273438 51.105469 43.925781 C 56.0625 43.242188 61.109375 44.59375 65.191406 47.832031 C 65.839844 48.34375 66.460938 48.90625 67.050781 49.511719 C 68.59375 51.09375 68.382812 53.699219 66.589844 55.273438 Z M 66.59375 55.265625 "/>
<path style=" stroke:none;fill-rule:nonzero;fill:rgb(100%,100%,100%);fill-opacity:1;" d="M 62.464844 81.980469 C 58.957031 83.890625 55.003906 84.617188 51.109375 84.078125 C 45.339844 83.277344 40.5625 79.839844 37.648438 75.269531 C 35.984375 66.75 37.882812 60.378906 41.292969 56.339844 C 41.691406 55.871094 42.109375 55.433594 42.546875 55.023438 C 42.808594 54.777344 43.082031 54.542969 43.355469 54.320312 C 43.449219 54.242188 43.539062 54.167969 43.636719 54.09375 C 44.105469 53.726562 44.59375 53.402344 45.089844 53.101562 C 45.292969 52.984375 45.5 52.871094 45.703125 52.761719 C 46.011719 52.597656 46.324219 52.449219 46.644531 52.3125 C 46.816406 52.234375 46.992188 52.164062 47.167969 52.097656 C 47.1875 52.085938 47.210938 52.078125 47.230469 52.070312 C 47.386719 52.015625 47.542969 51.957031 47.699219 51.902344 C 47.730469 51.890625 47.753906 51.882812 47.785156 51.875 C 47.933594 51.824219 48.085938 51.777344 48.238281 51.734375 C 48.269531 51.726562 48.300781 51.71875 48.335938 51.707031 C 48.484375 51.664062 48.632812 51.628906 48.78125 51.589844 C 48.816406 51.582031 48.847656 51.574219 48.882812 51.566406 C 49.035156 51.527344 49.1875 51.496094 49.335938 51.464844 C 49.371094 51.457031 49.402344 51.453125 49.433594 51.449219 C 49.589844 51.421875 49.746094 51.390625 49.902344 51.367188 C 49.929688 51.367188 49.960938 51.359375 49.988281 51.355469 C 50.15625 51.332031 50.324219 51.3125 50.488281 51.296875 L 50.546875 51.289062 C 50.578125 51.289062 50.609375 51.28125 50.640625 51.277344 C 50.796875 51.265625 50.953125 51.253906 51.105469 51.246094 C 44.777344 51.800781 40.019531 57.5 40.019531 63.992188 C 40.019531 64.292969 40.03125 64.597656 40.050781 64.894531 L 40.050781 64.90625 C 40.269531 73.003906 47.378906 82.421875 62.457031 81.960938 L 62.457031 81.972656 Z M 62.464844 81.980469 "/>
<path style=" stroke:none;fill-rule:nonzero;fill:rgb(100%,100%,100%);fill-opacity:1;" d="M 67.050781 78.496094 C 66 79.574219 64.851562 80.507812 63.628906 81.292969 C 63.574219 81.328125 63.527344 81.359375 63.472656 81.390625 C 63.144531 81.597656 62.808594 81.789062 62.472656 81.972656 C 47.390625 82.433594 40.277344 73.019531 40.050781 64.917969 C 40.050781 64.914062 40.050781 64.90625 40.050781 64.90625 C 40.039062 64.417969 40.050781 63.9375 40.085938 63.457031 C 40.097656 63.308594 40.109375 63.15625 40.121094 63.003906 C 39.664062 69.457031 43.984375 75.492188 50.21875 76.578125 C 52.714844 77.015625 55.183594 76.609375 57.347656 75.519531 C 57.417969 75.484375 57.488281 75.449219 57.554688 75.414062 C 58.910156 74.699219 60.136719 73.722656 61.160156 72.527344 C 62.625 71.261719 64.957031 71.296875 66.585938 72.726562 C 68.382812 74.296875 68.59375 76.90625 67.046875 78.488281 Z M 67.050781 78.496094 "/>
</g>
</svg>
