<?xml version="1.0" encoding="UTF-8"?>
<svg xmlns="http://www.w3.org/2000/svg" xmlns:xlink="http://www.w3.org/1999/xlink" width="128" height="128" viewBox="0 0 128 128" version="1.1">
<defs>
<linearGradient id="linear0" gradientUnits="userSpaceOnUse" x1="102.27" y1="220" x2="337.73" y2="220" gradientTransform="matrix(0.290909,0,0,0.290909,0,0)">
<stop offset="0" style="stop-color:rgb(89.411765%,72.156863%,13.72549%);stop-opacity:1;"/>
<stop offset="1" style="stop-color:rgb(95.294118%,62.745098%,16.470588%);stop-opacity:1;"/>
</linearGradient>
</defs>
<g id="surface1">
<path style=" stroke:none;fill-rule:nonzero;fill:rgb(74.509804%,53.333333%,19.215686%);fill-opacity:1;" d="M 98.25 31.5625 L 98.25 44.210938 L 74.835938 20.800781 L 87.480469 20.800781 C 93.429688 20.800781 98.25 25.621094 98.25 31.5625 Z M 98.25 31.5625 "/>
<path style=" stroke:none;fill-rule:nonzero;fill:url(#linear0);" d="M 66.132812 20.800781 L 98.25 52.917969 L 98.25 96.4375 C 98.25 102.378906 93.429688 107.199219 87.480469 107.199219 L 40.519531 107.199219 C 34.570312 107.199219 29.75 102.378906 29.75 96.4375 L 29.75 31.5625 C 29.75 25.621094 34.570312 20.800781 40.519531 20.800781 Z M 66.132812 20.800781 "/>
<path style="fill:none;stroke-width:12.27;stroke-linecap:round;stroke-linejoin:miter;stroke:rgb(100%,100%,100%);stroke-opacity:1;stroke-miterlimit:10;" d="M 224.216309 260.162354 L 224.216309 230.849609 C 224.216309 223.14209 230.272217 216.831055 237.885742 216.44165 C 238.140869 216.428223 238.395996 216.414795 238.651123 216.414795 L 276.785889 216.414795 C 284.748535 216.414795 291.220703 222.873535 291.220703 230.863037 L 291.220703 268.984375 C 291.220703 276.973877 284.761963 283.446045 276.785889 283.446045 L 238.651123 283.446045 C 238.31543 283.446045 237.966309 283.432617 237.617188 283.392334 " transform="matrix(0.290909,0,0,0.290909,0,0)"/>
<path style="fill:none;stroke-width:12.27;stroke-linecap:round;stroke-linejoin:miter;stroke:rgb(100%,100%,100%);stroke-opacity:1;stroke-miterlimit:10;" d="M 192.79541 239.282227 L 159.051514 297.719727 C 154.754639 305.185547 160.125732 314.504395 168.746338 314.504395 L 236.220703 314.504395 C 244.827881 314.504395 250.212402 305.185547 245.915527 297.719727 L 212.171631 239.282227 C 207.874756 231.816406 197.105713 231.816406 192.79541 239.282227 Z M 192.79541 239.282227 " transform="matrix(0.290909,0,0,0.290909,0,0)"/>
<path style="fill:none;stroke-width:12.27;stroke-linecap:round;stroke-linejoin:miter;stroke:rgb(100%,100%,100%);stroke-opacity:1;stroke-miterlimit:10;" d="M 175.111084 269.910889 C 159.561768 262.700195 148.779297 246.962891 148.779297 228.701172 C 148.779297 203.631592 169.095459 183.31543 194.165039 183.31543 C 214.978027 183.31543 232.514648 197.333984 237.885742 216.44165 " transform="matrix(0.290909,0,0,0.290909,0,0)"/>
</g>
</svg>
