<?xml version="1.0" encoding="UTF-8"?>
<svg xmlns="http://www.w3.org/2000/svg" xmlns:xlink="http://www.w3.org/1999/xlink" width="128" height="128" viewBox="0 0 128 128" version="1.1">
<defs>
<linearGradient id="linear0" gradientUnits="userSpaceOnUse" x1="220" y1="173.95" x2="409.98" y2="173.95" gradientTransform="matrix(0.290909,0,0,0.290909,0,0)">
<stop offset="0" style="stop-color:rgb(96.862745%,57.647059%,11.764706%);stop-opacity:1;"/>
<stop offset="1" style="stop-color:rgb(98.823529%,93.333333%,12.941176%);stop-opacity:1;"/>
</linearGradient>
<linearGradient id="linear1" gradientUnits="userSpaceOnUse" x1="2.83" y1="151.54" x2="445.28" y2="383.44" >
<stop offset="0" style="stop-color:rgb(20.392157%,79.215686%,81.960784%);stop-opacity:1;"/>
<stop offset="1" style="stop-color:rgb(0%,31.372549%,50.980392%);stop-opacity:1;"/>
</linearGradient>
<linearGradient id="linear2" gradientUnits="userSpaceOnUse" x1="27.01" y1="232.94" x2="412.99" y2="232.94" >
<stop offset="0" style="stop-color:rgb(0%,31.372549%,50.980392%);stop-opacity:1;"/>
<stop offset="1" style="stop-color:rgb(20.392157%,79.215686%,81.960784%);stop-opacity:1;"/>
</linearGradient>
</defs>
<g id="surface1">
<path style=" stroke:none;fill-rule:nonzero;fill:url(#linear0);" d="M 119.265625 50.605469 C 119.265625 35.347656 106.894531 22.980469 91.632812 22.980469 C 76.371094 22.980469 64 35.347656 64 50.605469 C 64 65.859375 76.371094 78.226562 91.632812 78.226562 C 106.894531 78.226562 119.265625 65.859375 119.265625 50.605469 Z M 119.265625 50.605469 "/>
<path style="fill-rule:nonzero;fill:url(#linear1);stroke-width:4.91;stroke-linecap:butt;stroke-linejoin:miter;stroke:url(#linear2);stroke-miterlimit:10;" d="M 121.252441 358.547363 C 62.989502 358.547363 29.460449 331.987305 29.460449 275.080566 C 29.460449 227.667236 56.356201 194.165039 101.218262 185.155029 C 96.894531 150.914307 111.866455 120.72876 142.844238 110.040283 C 164.248047 102.655029 204.276123 109.154053 225.45166 144.804688 C 264.821777 116.055908 316.411133 139.285889 323.809814 194.165039 C 370.887451 187.410889 410.539551 230.245361 410.539551 278.867188 C 410.539551 339.573975 371.169434 358.533936 330.228271 358.533936 L 121.252441 358.533936 Z M 121.252441 358.547363 " transform="matrix(0.290909,0,0,0.290909,0,0)"/>
</g>
</svg>
