<?xml version="1.0" encoding="UTF-8"?>
<svg xmlns="http://www.w3.org/2000/svg" xmlns:xlink="http://www.w3.org/1999/xlink" width="128" height="128" viewBox="0 0 128 128" version="1.1">
<defs>
<linearGradient id="linear0" gradientUnits="userSpaceOnUse" x1="-816.47" y1="11054.4" x2="-524.6" y2="11054.4" gradientTransform="matrix(0.000000000000000061,-1,1,0.000000000000000061,-10834.99,-450.94)">
<stop offset="0" style="stop-color:rgb(20.392157%,79.215686%,81.960784%);stop-opacity:1;"/>
<stop offset="1" style="stop-color:rgb(0%,31.372549%,50.980392%);stop-opacity:1;"/>
</linearGradient>
<linearGradient id="linear1" gradientUnits="userSpaceOnUse" x1="56.91" y1="219.59" x2="381.91" y2="219.59" >
<stop offset="0" style="stop-color:rgb(20.392157%,79.215686%,81.960784%);stop-opacity:1;"/>
<stop offset="1" style="stop-color:rgb(0%,31.372549%,50.980392%);stop-opacity:1;"/>
</linearGradient>
<linearGradient id="linear2" gradientUnits="userSpaceOnUse" x1="192.76" y1="124.27" x2="309.95" y2="272.6" gradientTransform="matrix(0.290909,0,0,0.290909,0.00653106,-0.000258595)">
<stop offset="0" style="stop-color:rgb(82.745098%,100%,100%);stop-opacity:1;"/>
<stop offset="1" style="stop-color:rgb(69.019608%,85.882353%,85.882353%);stop-opacity:1;"/>
</linearGradient>
<linearGradient id="linear3" gradientUnits="userSpaceOnUse" x1="142.07" y1="161.38" x2="260.39" y2="311.14" gradientTransform="matrix(0.290909,0,0,0.290909,0,0)">
<stop offset="0" style="stop-color:rgb(82.745098%,100%,100%);stop-opacity:1;"/>
<stop offset="1" style="stop-color:rgb(69.019608%,85.882353%,85.882353%);stop-opacity:1;"/>
</linearGradient>
</defs>
<g id="surface1">
<path style="fill-rule:nonzero;fill:url(#linear0);stroke-width:5.43;stroke-linecap:butt;stroke-linejoin:miter;stroke:url(#linear1);stroke-miterlimit:10;" d="M 87.347412 116.472168 L 87.347412 123.387451 L 71.878662 123.387451 C 65.111084 123.387451 59.619141 128.879395 59.619141 135.646973 L 59.619141 146.268311 C 59.619141 153.035889 65.111084 158.527832 71.878662 158.527832 L 87.347412 158.527832 L 87.347412 202.006836 L 71.878662 202.006836 C 65.111084 202.006836 59.619141 207.498779 59.619141 214.266357 L 59.619141 224.887695 C 59.619141 231.655273 65.111084 237.147217 71.878662 237.147217 L 87.347412 237.147217 L 87.347412 278.249512 L 71.878662 278.249512 C 65.111084 278.249512 59.619141 283.741455 59.619141 290.509033 L 59.619141 301.130371 C 59.619141 307.897949 65.111084 313.389893 71.878662 313.389893 L 87.347412 313.389893 L 87.347412 322.70874 C 87.347412 346.35498 106.522217 365.529785 130.155029 365.529785 L 336.378174 365.529785 C 360.024414 365.529785 379.185791 346.35498 379.185791 322.70874 L 379.185791 116.472168 C 379.185791 92.825928 360.024414 73.651123 336.378174 73.651123 L 130.155029 73.651123 C 106.522217 73.651123 87.347412 92.825928 87.347412 116.472168 Z M 87.347412 116.472168 " transform="matrix(0.290909,0,0,0.290909,0,0)"/>
<path style=" stroke:none;fill-rule:nonzero;fill:url(#linear2);" d="M 67.773438 39.046875 C 61.214844 39.035156 55.886719 44.34375 55.875 50.90625 C 55.863281 57.46875 61.167969 62.796875 67.730469 62.808594 C 74.289062 62.820312 79.617188 57.511719 79.628906 50.953125 C 79.640625 44.390625 74.335938 39.058594 67.773438 39.046875 Z M 67.773438 39.046875 "/>
<path style=" stroke:none;fill-rule:nonzero;fill:url(#linear3);" d="M 73.921875 66.421875 L 61.570312 66.421875 C 52.550781 66.421875 49.132812 71.585938 49.132812 77.953125 L 49.132812 86.808594 C 49.132812 87.863281 50.050781 88.714844 51.183594 88.714844 L 84.3125 88.714844 C 85.445312 88.714844 86.363281 87.863281 86.363281 86.808594 L 86.363281 77.953125 C 86.363281 71.585938 82.945312 66.421875 73.925781 66.421875 Z M 73.921875 66.421875 "/>
</g>
</svg>
