<svg width="128" height="128" viewBox="0 0 128 128" fill="none" xmlns="http://www.w3.org/2000/svg">
<g clip-path="url(#clip0_1_129)">
<path d="M106.461 53.2102C106.385 52.2298 105.734 51.3978 104.817 51.0487C101.859 49.9142 99.3367 47.6451 97.9665 44.5149C96.5964 41.3847 96.6371 37.9956 97.8153 35.0545C98.1789 34.144 98.0131 33.0996 97.344 32.3811C96.4742 31.4444 95.5549 30.56 94.592 29.7338C93.8356 29.0851 92.7709 28.9571 91.8574 29.3644C88.9745 30.6444 85.5971 30.8131 82.4204 29.5709C79.2436 28.3287 76.8756 25.9084 75.6247 23.0051C75.2291 22.0916 74.3622 21.4604 73.3673 21.4225C72.1047 21.3789 70.8334 21.4022 69.5622 21.4982C68.5818 21.5738 67.7498 22.2255 67.3978 23.1447C66.2662 26.1062 63.9913 28.6313 60.8553 30.0015C57.7164 31.3745 54.3156 31.328 51.3687 30.144C50.4553 29.7775 49.4109 29.9462 48.6894 30.6153C47.7585 31.4793 46.88 32.3898 46.0596 33.344C45.408 34.1033 45.2829 35.1709 45.6902 36.0844C46.9789 38.9731 47.1534 42.3593 45.9084 45.5389C44.6604 48.7244 42.2313 51.0924 39.3193 52.3404C38.3971 52.736 37.7629 53.6058 37.7309 54.6065C37.6873 55.8604 37.7134 57.1229 37.8065 58.3884C37.8822 59.3687 38.5367 60.2036 39.456 60.5556C42.2022 61.6 44.5731 63.6218 45.9985 66.4058C46.1673 66.2516 46.3302 66.0887 46.4844 65.92C46.9062 65.4545 47.5578 65.2684 48.16 65.4516C48.928 65.6873 49.6785 65.9636 50.4087 66.2778C50.9731 66.5222 51.3571 67.0749 51.3774 67.6916C51.4356 69.7076 52.2793 71.7004 53.8764 73.1753C55.4764 74.6502 57.5273 75.328 59.5404 75.2233C60.1571 75.1913 60.736 75.5287 61.0269 76.0727C61.4022 76.7767 61.7396 77.504 62.0364 78.2545C62.2662 78.8364 62.1324 79.4996 61.7047 79.9593C61.2422 80.4509 60.8465 81.0036 60.5265 81.6C60.9833 81.7222 61.4371 81.8676 61.8851 82.0451C65.0676 83.2902 67.4356 85.7135 68.6894 88.6255C69.0851 89.5447 69.9549 90.1731 70.9527 90.2109C72.2094 90.2545 73.4749 90.2284 74.7404 90.1324C75.7207 90.0567 76.5527 89.4051 76.9047 88.4858C78.0364 85.5185 80.3142 82.9934 83.4502 81.6233C86.5193 80.2793 89.8327 80.2938 92.7302 81.3964C93.7716 81.7949 94.9498 81.5535 95.7556 80.7855C96.6051 79.9767 97.6291 78.9673 98.24 78.2545C98.8742 77.5156 99.0371 76.4684 98.6385 75.5811C97.3294 72.6778 97.1462 69.2742 98.4 66.0742C99.6422 62.9004 102.06 60.5353 104.96 59.2873C105.876 58.8916 106.505 58.0247 106.543 57.0269C106.586 55.7615 106.563 54.4902 106.467 53.216L106.461 53.2102ZM78.5629 70.5018C70.4465 74.0509 60.9891 70.3535 57.4371 62.24C53.8851 54.1265 57.5884 44.672 65.7047 41.1229C73.8211 37.5738 83.2785 41.2713 86.8305 49.3847C90.3825 57.4982 86.6793 66.9527 78.5629 70.5018Z" fill="url(#paint0_linear_1_129)" stroke="url(#paint1_linear_1_129)" stroke-width="4.26" stroke-miterlimit="10"/>
<path d="M62.1469 91.008C60.6604 89.6553 59.6945 87.7353 59.6073 85.5738C59.52 83.4095 60.3258 81.4167 61.6989 79.9506C62.1265 79.4938 62.2633 78.8306 62.0305 78.2487C61.7338 77.5011 61.3964 76.7738 61.0211 76.0669C60.7302 75.5229 60.1513 75.1855 59.5345 75.2175C57.5244 75.3193 55.4705 74.6444 53.8705 73.1695C52.2705 71.6946 51.4298 69.7018 51.3687 67.6858C51.3513 67.0691 50.9673 66.5193 50.4 66.272C49.6698 65.9549 48.9193 65.6786 48.1513 65.4429C47.552 65.2597 46.9004 65.4487 46.4785 65.9113C45.1287 67.4007 43.2029 68.3666 41.0356 68.4538C38.8655 68.5411 36.8669 67.7324 35.4007 66.3535C34.944 65.9229 34.2778 65.7891 33.696 66.0189C32.9513 66.3127 32.2298 66.6473 31.5287 67.0196C30.9818 67.3106 30.6444 67.8924 30.6764 68.5091C30.784 70.5251 30.1062 72.5847 28.6284 74.1847C27.1476 75.7906 25.1491 76.6284 23.1273 76.6836C22.5076 76.7011 21.9549 77.0851 21.7076 77.6553C21.3935 78.3826 21.12 79.1273 20.8873 79.8895C20.704 80.4916 20.8931 81.1433 21.3585 81.5651C22.8509 82.9149 23.8196 84.8436 23.9098 87.0138C23.9971 89.184 23.1855 91.1826 21.8065 92.6516C21.376 93.1084 21.2422 93.7746 21.472 94.3564C21.7658 95.0982 22.1004 95.8167 22.4698 96.5149C22.7607 97.0618 23.3425 97.3993 23.9622 97.3673C25.9811 97.2597 28.0407 97.9346 29.6465 99.4153C31.2495 100.893 32.0902 102.889 32.1484 104.908C32.1658 105.524 32.5498 106.077 33.1171 106.324C33.8444 106.639 34.592 106.912 35.3571 107.148C35.9564 107.331 36.608 107.142 37.0298 106.679C38.3825 105.19 40.3084 104.221 42.4756 104.134C44.9949 104.032 47.2785 105.14 48.7738 106.938H48.7767C49.8909 106.56 50.9644 106.097 51.9855 105.551C52.5295 105.26 52.8669 104.681 52.8349 104.064C52.7302 102.048 53.408 99.9971 54.8858 98.3971C56.3607 96.7971 58.3505 95.9593 60.3665 95.8982C60.9833 95.8807 61.536 95.4967 61.7804 94.9295C62.0975 94.1993 62.3738 93.4458 62.6095 92.6749C62.7927 92.0756 62.6065 91.4269 62.1411 91.0051L62.1469 91.008ZM42.0015 92.5266C38.5571 92.6662 35.6538 89.9898 35.5142 86.5455C35.3745 83.104 38.0538 80.2007 41.4953 80.0611C44.9396 79.9215 47.8429 82.5978 47.9825 86.0393C48.1222 89.4807 45.4429 92.384 42.0015 92.5236V92.5266Z" fill="url(#paint2_linear_1_129)"/>
</g>
<defs>
<linearGradient id="paint0_linear_1_129" x1="27.6247" y1="97.0793" x2="80.0116" y2="48.4625" gradientUnits="userSpaceOnUse">
<stop stop-color="#34CAD1"/>
<stop offset="1" stop-color="#005082"/>
</linearGradient>
<linearGradient id="paint1_linear_1_129" x1="37.088" y1="55.8109" x2="107.177" y2="55.8109" gradientUnits="userSpaceOnUse">
<stop stop-color="#005082"/>
<stop offset="1" stop-color="#34CAD1"/>
</linearGradient>
<linearGradient id="paint2_linear_1_129" x1="20.8233" y1="86.2953" x2="62.6851" y2="86.2953" gradientUnits="userSpaceOnUse">
<stop stop-color="#D3FFFF"/>
<stop offset="1" stop-color="#B0DBDB"/>
</linearGradient>
<clipPath id="clip0_1_129">
<rect width="128" height="128" fill="white"/>
</clipPath>
</defs>
</svg>
