<?xml version="1.0" encoding="UTF-8"?>
<svg xmlns="http://www.w3.org/2000/svg" xmlns:xlink="http://www.w3.org/1999/xlink" width="128" height="128" viewBox="0 0 128 128" version="1.1">
<defs>
<linearGradient id="linear0" gradientUnits="userSpaceOnUse" x1="67.39" y1="380.29" x2="273.44" y2="145.32" gradientTransform="matrix(1,0,0,1,12.89,12.9)">
<stop offset="0" style="stop-color:rgb(20.392157%,79.215686%,81.960784%);stop-opacity:1;"/>
<stop offset="1" style="stop-color:rgb(0%,31.372549%,50.980392%);stop-opacity:1;"/>
</linearGradient>
<linearGradient id="linear1" gradientUnits="userSpaceOnUse" x1="58.19" y1="207.1" x2="356.02" y2="207.1" gradientTransform="matrix(1,0,0,1,12.89,12.9)">
<stop offset="0" style="stop-color:rgb(0%,31.372549%,50.980392%);stop-opacity:1;"/>
<stop offset="1" style="stop-color:rgb(20.392157%,79.215686%,81.960784%);stop-opacity:1;"/>
</linearGradient>
<linearGradient id="linear2" gradientUnits="userSpaceOnUse" x1="112.91" y1="227.9" x2="301.3" y2="227.9" gradientTransform="matrix(0.290909,0,0,0.290909,3.749818,3.752727)">
<stop offset="0" style="stop-color:rgb(82.745098%,100%,100%);stop-opacity:1;"/>
<stop offset="1" style="stop-color:rgb(69.019608%,85.882353%,85.882353%);stop-opacity:1;"/>
</linearGradient>
</defs>
<g id="surface1">
<path style="fill-rule:nonzero;fill:url(#linear0);stroke-width:5.44;stroke-linecap:butt;stroke-linejoin:miter;stroke:url(#linear1);stroke-miterlimit:10;" d="M 323.299561 87.938232 L 316.37085 87.938232 C 316.37085 87.938232 316.37085 72.469482 316.37085 72.469482 C 316.37085 65.701904 310.865479 60.209961 304.084473 60.209961 L 293.449707 60.209961 C 286.668701 60.209961 281.16333 65.701904 281.16333 72.469482 L 281.16333 87.938232 C 281.16333 87.938232 237.60376 87.938232 237.60376 87.938232 L 237.60376 72.469482 C 237.60376 65.701904 232.111816 60.209961 225.330811 60.209961 L 214.696045 60.209961 C 207.915039 60.209961 202.409668 65.701904 202.409668 72.469482 L 202.409668 87.938232 C 202.409668 87.938232 161.240234 87.938232 161.240234 87.938232 L 161.240234 72.469482 C 161.240234 65.701904 155.734863 60.209961 148.953857 60.209961 L 138.319092 60.209961 C 131.538086 60.209961 126.046143 65.701904 126.046143 72.469482 L 126.046143 87.938232 C 126.046143 87.938232 116.700439 87.938232 116.700439 87.938232 C 93.013916 87.938232 73.812256 107.113037 73.812256 130.74585 L 73.812256 336.968994 C 73.812256 360.615234 93.013916 379.776611 116.700439 379.776611 L 323.312988 379.776611 C 346.999512 379.776611 366.201172 360.615234 366.201172 336.968994 L 366.201172 130.74585 C 366.201172 107.099609 346.999512 87.938232 323.312988 87.938232 Z M 323.299561 87.938232 " transform="matrix(0.290909,0,0,0.290909,0,0)"/>
<path style=" stroke:none;fill-rule:nonzero;fill:url(#linear2);" d="M 91.402344 70.050781 C 91.402344 54.945312 79.132812 42.699219 64 42.699219 C 48.867188 42.699219 36.597656 54.945312 36.597656 70.050781 C 36.597656 85.15625 48.867188 97.402344 64 97.402344 C 79.132812 97.402344 91.402344 85.15625 91.402344 70.050781 Z M 91.402344 70.050781 "/>
<path style=" stroke:none;fill-rule:nonzero;fill:rgb(0%,31.372549%,50.980392%);fill-opacity:1;" d="M 76.632812 72.019531 L 63.574219 72.019531 C 62.484375 72.019531 61.601562 71.140625 61.601562 70.046875 L 61.601562 52.660156 C 61.601562 51.574219 62.484375 50.6875 63.574219 50.6875 C 64.667969 50.6875 65.550781 51.570312 65.550781 52.660156 L 65.550781 68.074219 C 65.550781 68.074219 76.632812 68.074219 76.632812 68.074219 C 77.722656 68.074219 78.605469 68.957031 78.605469 70.046875 C 78.605469 71.136719 77.722656 72.019531 76.632812 72.019531 Z M 76.632812 72.019531 "/>
</g>
</svg>
