<svg width="128" height="128" viewBox="0 0 128 128" fill="none" xmlns="http://www.w3.org/2000/svg">
<g clip-path="url(#clip0_1_107)">
<path d="M26.9673 45.6407C34.7375 57.7455 42.4611 69.7746 50.2895 81.9695C49.6058 82.0946 49.1607 82.2255 48.7069 82.2488C42.0189 82.5717 35.3309 82.912 28.6371 83.1331C27.9709 83.1564 26.9411 82.5804 26.6531 81.9986C20.7447 70.0626 20.7273 58.08 26.5658 46.1004C26.6211 45.9869 26.7346 45.9026 26.9644 45.6407H26.9673Z" fill="url(#paint0_linear_1_107)"/>
<path d="M98.7811 40.5789C84.0087 41.2742 69.4371 41.9578 54.4785 42.6618C56.0756 39.5345 57.5331 36.6545 59.0109 33.7833C60.8844 30.1382 62.7287 26.4786 64.6895 22.88C65.0124 22.2866 65.888 21.5651 66.464 21.6C80.1222 22.4058 90.848 28.4655 98.5716 39.7847C98.6735 39.936 98.6735 40.1571 98.7811 40.5789Z" fill="url(#paint1_linear_1_107)"/>
<path d="M101.094 82.304C93.2626 70.1004 85.5709 58.112 77.7106 45.8647C83.2291 45.5797 88.3898 45.312 93.5506 45.0531C95.0342 44.9775 96.544 45.088 97.9927 44.8378C100.137 44.4684 101.257 45.2655 102.115 47.232C107.028 58.5106 107.087 69.7193 101.903 80.9135C101.716 81.3178 101.455 81.6902 101.094 82.304Z" fill="url(#paint2_linear_1_107)"/>
<path d="M73.7047 85.2073C72.1047 88.3316 70.688 91.104 69.2655 93.8764C67.3862 97.5447 65.472 101.196 63.6422 104.887C63.072 106.036 62.3564 106.487 61.0356 106.391C47.6887 105.423 37.248 99.4007 29.5971 88.4684C29.408 88.2007 29.2916 87.8807 29.0065 87.3164C43.9273 86.6124 58.6124 85.92 73.7047 85.2102V85.2073Z" fill="url(#paint3_linear_1_107)"/>
<path d="M41.0385 61.4691C37.8735 56.5673 34.8596 51.9011 31.8487 47.232C31.4444 46.6036 31.04 45.9753 30.6385 45.344C28.3113 41.7018 28.256 41.6582 30.9149 38.2807C38.3796 28.8 48.1251 23.5549 60.1891 22.7025C60.3665 22.6909 60.5527 22.7927 60.9455 22.9004C54.3215 35.7324 47.7382 48.4829 41.0385 61.4662V61.4691Z" fill="url(#paint4_linear_1_107)"/>
<path d="M67.0982 105.041C73.7338 92.1891 80.2967 79.4764 87.0196 66.4524C88.9135 69.3673 90.6356 72.0116 92.3462 74.6618C94.5222 78.0335 96.7244 81.3847 98.8131 84.8087C99.1506 85.3585 99.2698 86.4465 98.9527 86.9324C91.5898 98.1178 81.216 104.244 67.8371 105.219C67.7091 105.228 67.5782 105.158 67.0982 105.039V105.041Z" fill="url(#paint5_linear_1_107)"/>
</g>
<defs>
<linearGradient id="paint0_linear_1_107" x1="22.2051" y1="64.3869" x2="50.2895" y2="64.3869" gradientUnits="userSpaceOnUse">
<stop stop-color="#34CAD1"/>
<stop offset="1" stop-color="#005082"/>
</linearGradient>
<linearGradient id="paint1_linear_1_107" x1="54.4756" y1="32.1309" x2="98.7811" y2="32.1309" gradientUnits="userSpaceOnUse">
<stop stop-color="#34CAD1"/>
<stop offset="1" stop-color="#005082"/>
</linearGradient>
<linearGradient id="paint2_linear_1_107" x1="77.7106" y1="63.5258" x2="105.795" y2="63.5258" gradientUnits="userSpaceOnUse">
<stop stop-color="#34CAD1"/>
<stop offset="1" stop-color="#005082"/>
</linearGradient>
<linearGradient id="paint3_linear_1_107" x1="29.0065" y1="95.8022" x2="73.7047" y2="95.8022" gradientUnits="userSpaceOnUse">
<stop stop-color="#34CAD1"/>
<stop offset="1" stop-color="#005082"/>
</linearGradient>
<linearGradient id="paint4_linear_1_107" x1="28.9076" y1="42.0887" x2="60.9484" y2="42.0887" gradientUnits="userSpaceOnUse">
<stop stop-color="#D3FFFF"/>
<stop offset="1" stop-color="#B0DBDB"/>
</linearGradient>
<linearGradient id="paint5_linear_1_107" x1="67.0982" y1="85.8385" x2="99.1389" y2="85.8385" gradientUnits="userSpaceOnUse">
<stop stop-color="#D3FFFF"/>
<stop offset="1" stop-color="#B0DBDB"/>
</linearGradient>
<clipPath id="clip0_1_107">
<rect width="128" height="128" fill="white"/>
</clipPath>
</defs>
</svg>
