<svg width="128" height="128" viewBox="0 0 128 128" fill="none" xmlns="http://www.w3.org/2000/svg">
<g clip-path="url(#clip0_1_81)">
<path d="M83.424 106.618H66.8567C66.8567 104.46 66.8975 102.298 66.8422 100.14C66.6444 92.4044 58.3069 87.2698 51.2844 90.592C46.9644 92.6371 44.9018 96.1745 44.8233 100.893C44.7913 102.801 44.7825 104.71 44.7622 106.618H28.1949C28.1251 106.575 28.0611 106.508 27.9884 106.493C23.7062 105.728 21.0589 102.033 21.1462 97.92C21.2451 93.2916 21.1753 88.6604 21.1782 84.0291C21.1782 83.7353 21.1782 83.4444 21.1782 83.0953C21.6378 83.0953 21.9695 83.0982 22.3011 83.0953C24.224 83.0749 26.1527 83.136 28.0698 83.0167C33.2887 82.6938 37.4778 78.7549 38.2051 73.5825C38.9178 68.5236 35.904 63.5316 30.9905 61.8676C29.6989 61.4313 28.2764 61.2858 26.9004 61.2073C25.0211 61.0996 23.1302 61.1811 21.2335 61.1811C21.2073 60.9716 21.1811 60.8669 21.1811 60.7593C21.184 55.7411 21.1404 50.72 21.2335 45.7047C21.2538 44.5498 21.5564 43.3134 22.0596 42.272C23.5636 39.1534 26.1818 37.6582 29.6465 37.6494C34.6385 37.6378 39.6276 37.6494 44.6196 37.6436C44.9396 37.6436 45.2596 37.6174 45.6291 37.6C45.6291 35.5636 45.6 33.6233 45.6349 31.6858C45.7745 23.8749 53.7396 18.9964 60.5615 22.5891C64.0116 24.4044 65.8502 27.3484 66.0073 31.2378C66.0916 33.3353 66.0218 35.4385 66.0218 37.6465C66.4378 37.6465 66.7666 37.6465 67.0924 37.6465C72 37.6465 76.9076 37.6553 81.8153 37.6407C83.2291 37.6378 84.6022 37.8094 85.8676 38.4582C88.9891 40.0582 90.5135 42.6414 90.5193 46.1149C90.528 51.0778 90.5193 56.0407 90.5251 61.0065C90.5251 61.3236 90.5571 61.6436 90.5775 62.0102C92.768 62.0102 94.8596 61.9491 96.9455 62.0247C100.614 62.1556 103.488 63.7847 105.341 66.9324C106.042 68.1193 106.356 69.5302 106.848 70.8393V73.3353C106.796 73.4894 106.726 73.6407 106.694 73.8007C105.844 78.0334 103.328 80.8 99.1593 81.9142C97.7367 82.2953 96.1804 82.2196 94.6822 82.2778C93.3266 82.3331 91.968 82.2894 90.5193 82.2894C90.5193 82.7403 90.5193 83.0924 90.5193 83.4473C90.5047 88.6836 90.5455 93.9229 90.4495 99.1564C90.4116 101.327 89.344 103.113 87.7324 104.579C86.496 105.705 84.9745 106.191 83.4153 106.618H83.424Z" fill="url(#paint0_linear_1_81)" stroke="url(#paint1_linear_1_81)" stroke-width="5.69" stroke-miterlimit="10"/>
</g>
<defs>
<linearGradient id="paint0_linear_1_81" x1="21.2742" y1="101.047" x2="75.2029" y2="55.9244" gradientUnits="userSpaceOnUse">
<stop stop-color="#34CAD1"/>
<stop offset="1" stop-color="#005082"/>
</linearGradient>
<linearGradient id="paint1_linear_1_81" x1="20.32" y1="64" x2="107.68" y2="64" gradientUnits="userSpaceOnUse">
<stop stop-color="#005082"/>
<stop offset="1" stop-color="#34CAD1"/>
</linearGradient>
<clipPath id="clip0_1_81">
<rect width="128" height="128" fill="white"/>
</clipPath>
</defs>
</svg>
