<svg width="128" height="128" viewBox="0 0 128 128" fill="none" xmlns="http://www.w3.org/2000/svg">
<g clip-path="url(#clip0_1_118)">
<path d="M93.8647 106.618H34.1353C27.904 106.618 22.8538 101.583 22.8538 95.3716V32.6284C22.8538 26.4174 27.904 21.3818 34.1353 21.3818H93.8676C100.099 21.3818 105.149 26.4174 105.149 32.6284V95.3745C105.149 101.585 100.099 106.621 93.8676 106.621L93.8647 106.618Z" fill="url(#paint0_linear_1_118)" stroke="url(#paint1_linear_1_118)" stroke-width="4.91" stroke-miterlimit="10"/>
<path d="M78.5658 57.2742H75.1185V48.5091C75.1185 43.1825 70.1295 38.8509 64 38.8509C57.8705 38.8509 52.8815 43.1825 52.8815 48.5091V57.2742H49.4342C47.3455 57.2742 45.6553 58.7433 45.6553 60.5585V85.8647C45.6553 87.6771 47.3484 89.1491 49.4342 89.1491H78.5658C80.6545 89.1491 82.3447 87.68 82.3447 85.8647V60.5585C82.3447 58.7462 80.6516 57.2742 78.5658 57.2742ZM69.5971 57.2742H58.4V48.5091C58.4 45.8269 60.9105 43.6451 63.9971 43.6451C67.0836 43.6451 69.5942 45.8269 69.5942 48.5091V57.2742H69.5971ZM69.7018 57.3643H58.2982V48.5091C58.2982 45.7774 60.8553 43.5549 64 43.5549C67.1447 43.5549 69.7018 45.7774 69.7018 48.5091V57.3643ZM58.5047 57.184H69.4924V48.5091C69.4924 45.8763 67.0284 43.7353 63.9971 43.7353C60.9658 43.7353 58.5018 45.8763 58.5018 48.5091V57.184H58.5047Z" fill="url(#paint2_linear_1_118)"/>
<path d="M78.5658 57.2742H75.1185V48.5091C75.1185 43.1825 70.1295 38.8509 64 38.8509C57.8705 38.8509 52.8815 43.1825 52.8815 48.5091V57.2742H49.4342C47.3455 57.2742 45.6553 58.7433 45.6553 60.5585V85.8647C45.6553 87.6771 47.3484 89.1491 49.4342 89.1491H78.5658C80.6545 89.1491 82.3447 87.68 82.3447 85.8647V60.5585C82.3447 58.7462 80.6516 57.2742 78.5658 57.2742ZM69.5971 57.2742H58.4V48.5091C58.4 45.8269 60.9105 43.6451 63.9971 43.6451C67.0836 43.6451 69.5942 45.8269 69.5942 48.5091V57.2742H69.5971ZM69.7018 57.3643H58.2982V48.5091C58.2982 45.7774 60.8553 43.5549 64 43.5549C67.1447 43.5549 69.7018 45.7774 69.7018 48.5091V57.3643ZM58.5047 57.184H69.4924V48.5091C69.4924 45.8763 67.0284 43.7353 63.9971 43.7353C60.9658 43.7353 58.5018 45.8763 58.5018 48.5091V57.184H58.5047Z" fill="url(#paint3_linear_1_118)"/>
<path d="M64 64.1687C60.9455 64.1687 58.4698 66.3185 58.4698 68.9745C58.4698 70.5222 59.3135 71.8982 60.6196 72.7767V79.1622C60.6196 79.7352 61.1549 80.2007 61.8153 80.2007H66.1876C66.848 80.2007 67.3833 79.7352 67.3833 79.1622V72.7767C68.6895 71.8982 69.5331 70.5222 69.5331 68.9745C69.5331 66.3214 67.0575 64.1687 64.0029 64.1687H64Z" fill="#005082"/>
</g>
<defs>
<linearGradient id="paint0_linear_1_118" x1="32.1047" y1="104.143" x2="87.2116" y2="34.784" gradientUnits="userSpaceOnUse">
<stop stop-color="#34CAD1"/>
<stop offset="1" stop-color="#005082"/>
</linearGradient>
<linearGradient id="paint1_linear_1_118" x1="22.1382" y1="64" x2="105.862" y2="64" gradientUnits="userSpaceOnUse">
<stop stop-color="#005082"/>
<stop offset="1" stop-color="#34CAD1"/>
</linearGradient>
<linearGradient id="paint2_linear_1_118" x1="45.6553" y1="64" x2="82.3447" y2="64" gradientUnits="userSpaceOnUse">
<stop stop-color="#D3FFFF"/>
<stop offset="1" stop-color="#B0DBDB"/>
</linearGradient>
<linearGradient id="paint3_linear_1_118" x1="45.6553" y1="64" x2="82.3447" y2="64" gradientUnits="userSpaceOnUse">
<stop stop-color="#D3FFFF"/>
<stop offset="1" stop-color="#B0DBDB"/>
</linearGradient>
<clipPath id="clip0_1_118">
<rect width="128" height="128" fill="white"/>
</clipPath>
</defs>
</svg>
